<?xml version="1.0" standalone="no"?><!DOCTYPE svg PUBLIC "-//W3C//DTD SVG 1.1//EN" "http://www.w3.org/Graphics/SVG/1.1/DTD/svg11.dtd"><svg t="1642577987142" class="icon" viewBox="0 0 1024 1024" version="1.1" xmlns="http://www.w3.org/2000/svg" p-id="2282" xmlns:xlink="http://www.w3.org/1999/xlink" width="200" height="200"><defs><style type="text/css"></style></defs><path d="M776.3 677.4L490 812.1c-32.4 15.3-71.4 1.2-86.7-31.2L202.2 353.5c-15.3-32.4-1.2-71.4 31.2-86.7L519.8 132c32.4-15.3 71.4-1.2 86.7 31.2l201.2 427.5c15.1 32.4 1.1 71.4-31.4 86.7z" fill="#FF4633" p-id="2283"></path><path d="M462.5 836.8c-9.6 0-19.2-1.7-28.5-5-21-7.6-37.9-22.8-47.3-43L185.5 361.3c-9.5-20.1-10.5-42.8-2.9-63.9s22.8-37.9 43-47.3L512 115.3c20.1-9.5 42.8-10.5 63.9-2.9s37.9 22.8 47.3 43l201.2 427.5c19.6 41.7 1.7 91.6-40 111.2L497.8 828.8c-11.2 5.3-23.2 8-35.3 8z m84.8-692.5c-6.7 0-13.4 1.5-19.7 4.4L241.2 283.5c-11.2 5.3-19.7 14.7-24 26.5s-3.7 24.4 1.6 35.7L420 773.1c5.3 11.2 14.7 19.7 26.5 24 11.8 4.2 24.4 3.7 35.7-1.6l286.4-134.8c23.3-11 33.3-38.8 22.4-62.1L589.7 171.1c-5.3-11.2-14.7-19.7-26.5-24-5.2-1.8-10.6-2.8-15.9-2.8z" fill="#840000" p-id="2284"></path><path d="M460.8 367.1c-164.3 77.3-242.2 2.8-242.2 2.8-36-32.9-40.2-77.2-4.4-94L538.9 123c35.7-16.8 67.2 14.7 69.6 63.4 0 0 16.6 103.4-147.7 180.7z" fill="#FFAC33" p-id="2285"></path><path d="M322.3 420.7c-75.8 0-114.1-35.3-116.4-37.5-25.3-23.1-38.2-52.7-34.2-79 3-19.9 15.3-35.9 34.7-45l324.8-152.8c19.3-9.1 39.5-8.4 56.8 2 22.6 13.6 37.2 42.1 39.1 76.4 1.6 13.3 9 120.4-158.2 199.1-59 27.6-107.8 36.8-146.6 36.8z m235.8-283.8c-3.6 0-7.4 0.9-11.4 2.8L222 292.6c-8.2 3.8-12.7 9.5-13.9 17.2-2.1 13.9 6.7 31.7 22.9 46.6 3.1 2.8 72.6 64.4 222-5.9 148.1-69.7 137.8-157.6 137.3-161.3l-0.2-1.8c-1.1-22-9.2-40.1-21.3-47.3-3.4-2.2-6.9-3.2-10.7-3.2zM220.6 669.6c-28.3-17.2-65.2-8.2-82.4 20.1s-8.2 65.2 20.1 82.4 65.2 8.2 82.4-20.1 8.2-65.2-20.1-82.4zM191.4 743l-22.5-13.7c-2.2-1.4-2.9-4.3-1.6-6.5l13.7-22.5c1.4-2.2 4.3-2.9 6.5-1.6l22.5 13.7c2.2 1.4 2.9 4.3 1.6 6.5l-13.7 22.5c-1.3 2.2-4.2 2.9-6.5 1.6zM191.4 508.2c-31.1-29.2-79.9-27.8-109.2 3.3s-27.8 79.9 3.3 109.2 79.9 27.8 109.2-3.3 27.7-79.9-3.3-109.2zM135 592.9l-24.7-23.3c-2.4-2.3-2.6-6.1-0.3-8.6l23.3-24.7c2.3-2.4 6.1-2.6 8.6-0.3l24.7 23.3c2.4 2.3 2.6 6.1 0.3 8.6l-23.3 24.7c-2.3 2.5-6.1 2.6-8.6 0.3z" fill="#840000" p-id="2286"></path><path d="M704.8 939l-327.9-96.7c-37.1-10.9-58.5-50.3-47.6-87.4l144.4-489.5c10.9-37.1 50.3-58.5 87.4-47.6L889 314.6c37.1 10.9 58.5 50.3 47.6 87.4L792.2 891.4c-11 37.1-50.3 58.5-87.4 47.6z" fill="#FF4633" p-id="2287"></path><path d="M724.7 960.3c-8.3 0-16.7-1.2-25.1-3.6L371.7 860c-47-13.9-73.9-63.3-60-110.3L456 260.2c6.7-22.7 21.9-41.4 42.7-52.8 20.9-11.4 44.9-14 67.5-7.3l327.9 96.7c22.7 6.7 41.4 21.9 52.8 42.7 11.4 20.9 13.9 44.9 7.3 67.5L809.9 896.6c-11.4 38.6-46.9 63.7-85.2 63.7z m-14.7-39c27.4 8.1 56.4-7.7 64.5-35.1l144.4-489.5c3.9-13.2 2.4-27.2-4.3-39.5-6.7-12.2-17.6-21.1-30.8-25l-327.9-96.7c-13.2-3.9-27.2-2.4-39.5 4.3-12.2 6.7-21.1 17.6-25 30.8L347 760.1c-8.1 27.4 7.6 56.4 35.1 64.5L710 921.3z" fill="#840000" p-id="2288"></path><path d="M672.8 462.1c-188.1-55.5-197.6-171.6-197.6-171.6-5.5-52.4 23-91.2 63.9-79.1L911 321c40.9 12.1 43.7 60.1 10.7 101.1 0 0.1-60.8 95.4-248.9 40z" fill="#FFAC33" p-id="2289"></path><path d="M781.7 497.9c-32 0-69.8-5.1-114.1-18.2-197.9-58.4-210.3-182.5-210.7-187.8-3.8-36.3 6.9-69 28.6-87.1 16.4-13.6 37.3-17.6 58.9-11.2l371.9 109.7c21.6 6.4 37.1 21.1 43.4 41.4 8.4 26.7-0.2 59.7-23 88.4-6.2 8.8-49 64.8-155 64.8zM678 444.4c170.8 50.4 226-28.9 228.3-32.3l1.1-1.5c15.2-18.9 21.7-39.9 17.1-54.8-2.6-8.4-8.9-14.1-18.7-17L533.9 229c-9.7-2.9-18.1-1.5-24.9 4.2-12 10-17.9 31.2-15.4 55.3 0.4 4.5 12.3 105.1 184.4 155.9z" fill="#840000" p-id="2290"></path><path d="M645.5 758l-55.2 30.1c-12.6 6.9-28.4 2.2-35.3-10.4l-30.1-55.2c-6.9-12.6-2.2-28.4 10.4-35.3l55.2-30.1c12.6-6.9 28.4-2.2 35.3 10.4l30.1 55.2c6.9 12.7 2.2 28.4-10.4 35.3z" fill="#FFAC33" p-id="2291"></path><path d="M577.9 809.7c-15.8 0-31-8.4-39.1-23.2l-30.1-55.2c-5.7-10.4-6.9-22.4-3.6-33.8 3.4-11.4 11-20.8 21.4-26.5l55.2-30.1c21.5-11.7 48.5-3.7 60.3 17.8l30.1 55.2c11.7 21.5 3.7 48.5-17.8 60.3l-55.2 30.1c-6.8 3.6-14 5.4-21.2 5.4zM603 672.4c-1.2 0-2.5 0.3-3.6 0.9l-55.2 30.1c-3.7 2-5 6.6-3 10.2l30.1 55.2c2 3.7 6.6 5 10.2 3l55.2-30.1c3.7-2 5-6.6 3-10.2l-30.1-55.2c-1.3-2.5-3.9-3.9-6.6-3.9z" fill="#840000" p-id="2292"></path><path d="M665.8 623.1L627 644.2c-8.9 4.8-19.9 1.6-24.8-7.3l-21.1-38.8c-4.8-8.9-1.6-19.9 7.3-24.8l38.8-21.1c8.9-4.8 19.9-1.6 24.8 7.3l21.1 38.8c4.8 8.9 1.5 20-7.3 24.8z" fill="#FFAC33" p-id="2293"></path><path d="M618.3 664.9c-13 0-25.6-6.9-32.3-19.1L564.9 607c-4.7-8.6-5.7-18.5-3-27.9 2.8-9.4 9-17.2 17.7-21.8l38.8-21.1c17.8-9.7 40.1-3.1 49.8 14.7l21.1 38.8c9.7 17.8 3.1 40.1-14.7 49.8l-38.8 21.1c-5.6 2.9-11.6 4.3-17.5 4.3z m17.5-96.5l-38.6 21.2 21.2 38.6L657 607l-21.2-38.6z" fill="#840000" p-id="2294"></path><path d="M499.1 720.3c-16.2 8.8-36.4 2.8-45.2-13.3-8.8-16.2-2.8-36.4 13.3-45.2 16.2-8.8 36.4-2.8 45.2 13.3 8.9 16.1 2.9 36.3-13.3 45.2z" fill="#FFAC33" p-id="2295"></path><path d="M483.3 742.8c-4.9 0-9.9-0.7-14.7-2.1-13.3-3.9-24.2-12.8-30.8-24.9-13.7-25.1-4.4-56.6 20.7-70.3 25.1-13.6 56.6-4.4 70.3 20.7 6.6 12.2 8.1 26.2 4.2 39.4-3.9 13.3-12.8 24.2-24.9 30.8-7.8 4.2-16.3 6.4-24.8 6.4z m-0.1-66.8c-2.4 0-4.8 0.6-7.1 1.8-7.2 3.9-9.9 13-6 20.2 1.9 3.5 5.1 6 8.9 7.2 3.8 1.1 7.8 0.7 11.3-1.2 3.5-1.9 6-5.1 7.2-8.9 1.1-3.8 0.7-7.9-1.2-11.4-2.7-4.8-7.8-7.7-13.1-7.7z" fill="#840000" p-id="2296"></path><path d="M713.8 783.4l-0.5 0.3c-16 8.7-36.1 2.8-44.8-13.2l-0.3-0.5c-8.7-16-2.8-36.1 13.2-44.8l0.5-0.3c16-8.7 36.1-2.8 44.8 13.2l0.3 0.5c8.8 16 2.9 36-13.2 44.8z" fill="#FFAC33" p-id="2297"></path><path d="M697.6 806.1c-18.3 0-36-9.7-45.3-26.8l-0.3-0.5c-13.6-25-4.4-56.3 20.6-69.9l0.6-0.3c12-6.6 26-8 39.2-4.1s24.1 12.7 30.7 24.8l0.3 0.5c6.6 12.1 8.1 26 4.2 39.2-3.9 13.2-12.7 24-24.7 30.6l-0.5 0.3c-8 4.2-16.5 6.2-24.8 6.2z m0.1-66.9c-2.4 0-4.8 0.6-7 1.8l-0.6 0.3c-7 3.8-9.7 12.7-5.8 19.8l0.3 0.5c3.9 7.1 12.8 9.8 19.9 5.9l0.5-0.3c3.4-1.9 5.9-5 7-8.7s0.7-7.7-1.2-11.1l-0.3-0.5c-1.9-3.4-5-5.9-8.7-7-1.3-0.5-2.7-0.7-4.1-0.7z" fill="#840000" p-id="2298"></path></svg>