<?xml version="1.0" encoding="utf-8"?>
<!-- Generator: Adobe Illustrator 25.2.3, SVG Export Plug-In . SVG Version: 6.00 Build 0)  -->
<svg version="1.1" id="图层_1" xmlns="http://www.w3.org/2000/svg" xmlns:xlink="http://www.w3.org/1999/xlink" x="0px" y="0px"
	 viewBox="0 0 200 200" style="enable-background:new 0 0 200 200;" xml:space="preserve">
<style type="text/css">
	.st0{fill:url(#SVGID_1_);stroke:#FFFFFF;stroke-width:3;stroke-miterlimit:10;}
</style>
<linearGradient id="SVGID_1_" gradientUnits="userSpaceOnUse" x1="15.8426" y1="100" x2="181.2699" y2="100">
	<stop  offset="0" style="stop-color:#CC00FF"/>
	<stop  offset="0.5" style="stop-color:#6D41FB"/>
	<stop  offset="1" style="stop-color:#0082FF"/>
</linearGradient>
<path class="st0" d="M150.1,24.1c-12.6-12.9-20.2-20.2-28-20.2H81.4c-16.3,0-29.5,13.2-29.5,29.5c0,0,0,0,0,0v54.4H23.2
	c-4.1,0-7.4,3.3-7.4,7.4v45.6c0,4.1,3.3,7.4,7.4,7.4h28.7v18.3c0,16.3,13.2,29.5,29.5,29.6c0,0,0,0,0,0h70.3
	c16.3,0,29.6-13.2,29.6-29.5c0,0,0,0,0,0V63c0-7.8-7.3-15.4-20.2-28L150.1,24.1L150.1,24.1z M157.2,184.2H78.7
	c-8.2,0-14.8-6.6-14.8-14.8V148h52.7c4.1,0,7.4-3.3,7.4-7.4V95.3c0-4.1-3.3-7.3-7.4-7.3c0,0,0,0,0,0H63.9V33.5
	c0-8.1,6.7-17.5,14.9-17.6h40c5.3,0,5.3,5.6,5.3,12.1v28.6c0,4.1,3.3,7.4,7.4,7.4h25.8c7.4,0,14.8,0,14.8,7.4v98
	C172,177.5,165.4,184.1,157.2,184.2L157.2,184.2z"/>
</svg>
