<?xml version="1.0" standalone="no"?><!DOCTYPE svg PUBLIC "-//W3C//DTD SVG 1.1//EN" "http://www.w3.org/Graphics/SVG/1.1/DTD/svg11.dtd"><svg t="1644566436883" class="icon" viewBox="0 0 1024 1024" version="1.1" xmlns="http://www.w3.org/2000/svg" p-id="2063" xmlns:xlink="http://www.w3.org/1999/xlink" width="200" height="200"><defs><style type="text/css"></style></defs><path d="M779.392 107.52C712.064 39.04 672 0 630.144 0H413.312A157.312 157.312 0 0 0 256 157.44v289.856H103.36A39.488 39.488 0 0 0 64 486.656V729.6c0.064 21.696 17.664 39.296 39.36 39.36H256v97.536A157.312 157.312 0 0 0 413.248 1024h374.4a157.44 157.44 0 0 0 157.568-157.44V315.072c0-41.728-39.04-81.92-107.52-149.248l-58.24-58.304z m37.76 852.8H398.784a78.976 78.976 0 0 1-78.72-78.784v-113.792h280.704a39.488 39.488 0 0 0 39.424-39.36V486.912a39.232 39.232 0 0 0-39.424-39.04H320V157.504C320.128 114.112 355.84 64.128 399.232 64h213.12c28.032 0 27.968 30.08 27.968 64.64v152.192c0.064 21.76 17.664 39.296 39.424 39.36h137.472c39.36 0 78.72 0 78.72 39.424v521.92a78.976 78.976 0 0 1-78.72 78.72z" p-id="2064" fill="#ffffff"></path></svg>